<?xml version="1.0" standalone="no"?>
<!DOCTYPE svg PUBLIC "-//W3C//DTD SVG 20010904//EN"
 "http://www.w3.org/TR/2001/REC-SVG-20010904/DTD/svg10.dtd">
<svg version="1.0" xmlns="http://www.w3.org/2000/svg"
 width="500.000000pt" height="500.000000pt" viewBox="0 0 500.000000 500.000000"
 preserveAspectRatio="xMidYMid meet">

<g transform="translate(0.000000,500.000000) scale(0.100000,-0.100000)"
fill="#000000" stroke="none">
<path d="M2322 4989 c-326 -24 -608 -103 -937 -264 -201 -98 -339 -191 -530
-356 -264 -227 -497 -546 -638 -869 -115 -264 -176 -509 -203 -820 -14 -159
-14 -192 1 -355 30 -335 103 -612 235 -892 136 -288 349 -572 593 -791 l47
-43 47 32 c25 18 134 80 242 139 526 287 608 334 639 363 18 18 45 57 60 87
26 53 27 62 30 242 l4 186 -39 54 c-92 124 -187 316 -238 481 -21 68 -36 95
-70 130 -70 73 -77 109 -73 364 3 231 7 252 59 308 17 19 19 46 22 350 4 369
7 389 78 525 98 188 268 303 540 361 89 20 134 23 309 23 175 0 220 -3 309
-23 324 -70 503 -217 592 -486 22 -67 23 -85 26 -399 2 -310 3 -330 21 -350
53 -57 57 -77 60 -309 3 -179 1 -226 -13 -266 -20 -62 -73 -123 -127 -149 -39
-18 -45 -26 -67 -88 -40 -117 -148 -324 -221 -426 l-70 -97 0 -184 c0 -217 9
-253 79 -327 41 -43 98 -75 495 -275 247 -125 464 -238 481 -251 l32 -24 84
73 c130 114 282 294 404 477 258 388 409 895 408 1370 -2 355 -86 730 -236
1043 -280 584 -721 1004 -1317 1255 -243 102 -497 161 -785 182 -154 11 -169
11 -333 -1z"/>
</g>
</svg>
