<?xml version="1.0" standalone="no"?>
<svg version="1.0" xmlns="http://www.w3.org/2000/svg"
 width="105.000000pt" height="99.000000pt" viewBox="0 0 105.000000 99.000000"
 preserveAspectRatio="xMidYMid meet">

<g transform="translate(0.000000,99.000000) scale(0.100000,-0.100000)"
fill="#fff" stroke="none">
<path d="M391 920 c-139 -51 -240 -160 -275 -297 -56 -214 38 -424 230 -515
123 -58 232 -58 374 -2 119 46 175 49 234 9 39 -26 44 -20 21 24 -50 99 -192
139 -308 89 -40 -18 -71 -23 -137 -23 -77 0 -90 3 -140 31 -182 102 -212 346
-61 491 191 183 505 44 506 -223 0 -63 -4 -80 -37 -143 l-37 -73 39 7 c21 4
55 2 75 -4 l37 -10 26 57 c24 51 27 69 27 168 0 107 -1 112 -37 186 -48 96
-140 186 -225 219 -84 32 -237 37 -312 9z"/>
<path d="M555 635 c-25 -21 -41 -25 -97 -25 -63 0 -68 -2 -89 -31 l-21 -30 28
-30 c15 -16 38 -29 51 -29 20 0 23 -5 23 -35 0 -24 5 -35 15 -35 10 0 15 11
15 35 0 30 3 35 23 35 12 0 39 -11 59 -25 20 -14 39 -25 42 -25 4 0 6 16 6 35
0 24 6 37 20 45 11 6 20 20 20 30 0 11 -9 25 -20 32 -13 9 -20 24 -20 45 0 40
-14 41 -55 8z"/>
<path d="M732 550 c0 -14 2 -19 5 -12 2 6 2 18 0 25 -3 6 -5 1 -5 -13z"/>
<path d="M521 356 c-12 -14 -5 -26 16 -26 15 0 18 26 4 34 -5 3 -14 0 -20 -8z"/>
<path d="M440 345 c0 -8 7 -15 15 -15 8 0 15 7 15 15 0 8 -7 15 -15 15 -8 0
-15 -7 -15 -15z"/>
<path d="M590 345 c0 -8 7 -15 15 -15 8 0 15 7 15 15 0 8 -7 15 -15 15 -8 0
-15 -7 -15 -15z"/>
</g>
</svg>
