<?xml version="1.0" standalone="no"?>
<!DOCTYPE svg PUBLIC "-//W3C//DTD SVG 20010904//EN"
 "http://www.w3.org/TR/2001/REC-SVG-20010904/DTD/svg10.dtd">
<svg version="1.0" xmlns="http://www.w3.org/2000/svg"
 width="500.000000pt" height="500.000000pt" viewBox="0 0 500.000000 500.000000"
 preserveAspectRatio="xMidYMid meet">

<g transform="translate(0.000000,500.000000) scale(0.100000,-0.100000)"
fill="#fff" stroke="none">
<path d="M2285 4980 c-223 -24 -481 -156 -666 -340 -97 -97 -206 -256 -257
-372 -18 -42 -45 -121 -59 -175 -25 -90 -27 -114 -27 -293 -1 -172 2 -205 22
-280 46 -171 108 -302 202 -430 189 -253 455 -418 760 -471 107 -18 326 -16
431 4 294 58 559 225 739 467 280 377 301 933 50 1332 -129 205 -293 351 -517
459 -150 74 -264 100 -448 104 -82 2 -186 0 -230 -5z"/>
<path d="M1375 2570 c-197 -27 -359 -102 -498 -230 -277 -253 -455 -801 -458
-1401 -1 -347 54 -505 240 -689 103 -103 190 -156 321 -198 139 -45 129 -45
1450 -49 1287 -4 1385 -2 1530 33 93 23 234 92 310 152 235 187 322 435 299
853 -20 373 -83 659 -203 929 -85 190 -171 306 -305 412 -138 110 -280 166
-477 188 -150 17 -164 12 -399 -140 -180 -117 -183 -119 -315 -165 -295 -103
-513 -95 -823 28 -47 19 -148 76 -239 135 -86 56 -178 112 -204 124 -54 24
-141 31 -229 18z"/>
</g>
</svg>
